<svg width="3463" height="269" viewBox="0 0 3463 269" fill="none" xmlns="http://www.w3.org/2000/svg">
<path d="M0 135.271L1.66235e-05 6.10352e-05L1001 7.3152e-05V153.839C997.324 166.758 1004.12 215.551 982.616 225.586C948.129 241.68 908.214 233.775 890.242 210.014C854.093 244.387 732.78 290.225 597.988 258.113C429.497 217.973 532.43 114.163 302.67 225.586C118.862 314.724 21.0358 188.906 0 135.271Z" fill="white"/>
<path d="M1763.99 135.271V6.10352e-05L762.988 7.3152e-05V153.839C766.664 166.758 759.87 215.551 781.372 225.586C815.858 241.68 855.773 233.775 873.746 210.014C909.895 244.387 1031.21 290.225 1166 258.113C1334.49 217.973 1231.56 114.163 1461.32 225.586C1645.13 314.724 1742.95 188.906 1763.99 135.271Z" fill="white"/>
<path d="M1699 135.271L1699 6.10352e-05L2700 7.3152e-05V153.839C2696.32 166.758 2703.12 215.551 2681.62 225.586C2647.13 241.68 2607.21 233.775 2589.24 210.014C2553.09 244.387 2431.78 290.225 2296.99 258.113C2128.5 217.973 2231.43 114.163 2001.67 225.586C1817.86 314.724 1720.04 188.906 1699 135.271Z" fill="white"/>
<path d="M3462.99 135.271V6.10352e-05L2461.99 7.3152e-05V153.839C2465.66 166.758 2458.87 215.551 2480.37 225.586C2514.86 241.68 2554.77 233.775 2572.75 210.014C2608.89 244.387 2730.21 290.225 2865 258.113C3033.49 217.973 2930.56 114.163 3160.32 225.586C3344.13 314.724 3441.95 188.906 3462.99 135.271Z" fill="white"/>
</svg>
