<svg id="Capa_1" data-name="Capa 1" xmlns="http://www.w3.org/2000/svg" xmlns:xlink="http://www.w3.org/1999/xlink" viewBox="0 0 192 192"><defs><style>.cls-1{fill:#fff;}.cls-2{fill:#00335f;}.cls-3{fill:#009fe3;}.cls-10,.cls-11,.cls-12,.cls-13,.cls-18,.cls-4,.cls-5,.cls-6,.cls-7,.cls-8,.cls-9{opacity:0.63;}.cls-4{fill:url(#Degradado_sin_nombre_128);}.cls-5{fill:url(#Degradado_sin_nombre_128-2);}.cls-6{fill:url(#Degradado_sin_nombre_128-3);}.cls-7{fill:url(#Degradado_sin_nombre_128-4);}.cls-8{fill:url(#Degradado_sin_nombre_128-5);}.cls-9{fill:url(#Degradado_sin_nombre_128-6);}.cls-10{fill:url(#Degradado_sin_nombre_128-7);}.cls-11{fill:url(#Degradado_sin_nombre_128-8);}.cls-12{fill:url(#Degradado_sin_nombre_128-9);}.cls-13{fill:url(#Degradado_sin_nombre_128-10);}.cls-14{fill:url(#Degradado_sin_nombre_72);}.cls-15{fill:url(#Degradado_sin_nombre_72-2);}.cls-16{fill:#e30613;}.cls-17{fill:#0069b4;}.cls-18{fill:url(#Degradado_sin_nombre_129);}</style><linearGradient id="Degradado_sin_nombre_128" x1="23.18" y1="99.72" x2="53.65" y2="99.72" gradientUnits="userSpaceOnUse"><stop offset="0" stop-color="#fff"/><stop offset="0.18" stop-color="#e9f6fd"/><stop offset="0.54" stop-color="#c2e7fa"/><stop offset="0.82" stop-color="#aadef9"/><stop offset="1" stop-color="#a1daf8"/></linearGradient><linearGradient id="Degradado_sin_nombre_128-2" x1="8.97" y1="69.16" x2="39.43" y2="69.16" xlink:href="#Degradado_sin_nombre_128"/><linearGradient id="Degradado_sin_nombre_128-3" x1="24.2" y1="30.93" x2="51.75" y2="30.93" xlink:href="#Degradado_sin_nombre_128"/><linearGradient id="Degradado_sin_nombre_128-4" x1="50.14" y1="47.05" x2="78.04" y2="47.05" xlink:href="#Degradado_sin_nombre_128"/><linearGradient id="Degradado_sin_nombre_128-5" x1="38.22" y1="39.3" x2="62" y2="39.3" xlink:href="#Degradado_sin_nombre_128"/><linearGradient id="Degradado_sin_nombre_128-6" x1="20.5" y1="78.13" x2="40.81" y2="78.13" xlink:href="#Degradado_sin_nombre_128"/><linearGradient id="Degradado_sin_nombre_128-7" x1="20.5" y1="55.28" x2="42.7" y2="55.28" xlink:href="#Degradado_sin_nombre_128"/><linearGradient id="Degradado_sin_nombre_128-8" x1="27.48" y1="89.85" x2="39.91" y2="89.85" xlink:href="#Degradado_sin_nombre_128"/><linearGradient id="Degradado_sin_nombre_128-9" x1="60.35" y1="92.77" x2="68.79" y2="92.77" xlink:href="#Degradado_sin_nombre_128"/><linearGradient id="Degradado_sin_nombre_128-10" x1="43.89" y1="86.65" x2="52.71" y2="86.65" xlink:href="#Degradado_sin_nombre_128"/><linearGradient id="Degradado_sin_nombre_72" x1="111.15" y1="76.91" x2="69.41" y2="75.24" gradientUnits="userSpaceOnUse"><stop offset="0" stop-color="#fff"/><stop offset="0.44" stop-color="#f9fdff"/><stop offset="1" stop-color="#eaf6fe"/></linearGradient><linearGradient id="Degradado_sin_nombre_72-2" x1="110.22" y1="30.32" x2="68.48" y2="28.65" xlink:href="#Degradado_sin_nombre_72"/><linearGradient id="Degradado_sin_nombre_129" x1="4.75" y1="157.64" x2="186.13" y2="157.64" gradientUnits="userSpaceOnUse"><stop offset="0" stop-color="#a1daf8"/><stop offset="0.18" stop-color="#aadef9"/><stop offset="0.46" stop-color="#c2e7fa"/><stop offset="0.82" stop-color="#e9f6fd"/><stop offset="1" stop-color="#fff"/></linearGradient></defs><path class="cls-1" d="M151.3,112.69c0-2.36-1.45-4.57-4.32-6.56a.57.57,0,0,0-.13-.08c-2.21-1.39-3.82-2-5.21-2a6.49,6.49,0,0,0-3.7,1.1,11.13,11.13,0,0,0-2.91,3.34l-7,11.22-7-11.23a11.1,11.1,0,0,0-3.07-3.41,6.07,6.07,0,0,0-3.56-1c-1.47,0-3.13.69-5.58,2.33-2.69,1.8-4.05,3.93-4.05,6.31a9,9,0,0,0,1.93,5l5.16,7.72c-.37-.23-.74-.46-1.13-.67h0a15.89,15.89,0,0,0-5.69-1.75,7.88,7.88,0,0,0-1.13-.08h-.77a15.8,15.8,0,0,0-9,2.71,16.51,16.51,0,0,0-5.9,7.06,17.61,17.61,0,0,0-1,3.1,15.32,15.32,0,0,0-.37,3.42,15.12,15.12,0,0,0,.13,2,6,6,0,0,0-4.82,1.52,3.08,3.08,0,0,0-.25.27,4.16,4.16,0,0,1-1,.6,5.31,5.31,0,0,1-2,.3,4.46,4.46,0,0,1-1.86-.39,5.39,5.39,0,0,1-1.6-1.11,5,5,0,0,1-1-1.6,4.83,4.83,0,0,1-.37-1.89v-5h9.65a5.47,5.47,0,0,0,4.06-1.83,5.79,5.79,0,0,0,1.64-4,5.88,5.88,0,0,0-1.54-4,5.5,5.5,0,0,0-4.16-1.84H73.89v-1.91a2.44,2.44,0,0,0,0-.27,6.48,6.48,0,0,0-1.71-3.91A5.64,5.64,0,0,0,68,114.3a5.54,5.54,0,0,0-4.35,2,6.1,6.1,0,0,0-1.52,4v3.08a5.39,5.39,0,0,0-2.51-.62H48.89a10.77,10.77,0,0,0-4.23,1,11.15,11.15,0,0,0-3.34,2.41A11,11,0,0,0,39.39,129a16.83,16.83,0,0,0-1.65-1.82,16.32,16.32,0,0,0-5.18-3.26,16.58,16.58,0,0,0-6.16-1.18A16.3,16.3,0,0,0,19.94,124a16.05,16.05,0,0,0-5.14,3.52c-.19.2-.38.41-.56.62v-7.94a5.67,5.67,0,0,0-1.65-4,5.55,5.55,0,0,0-4.06-1.75,5.8,5.8,0,0,0-5.82,5.77v29.5a5.65,5.65,0,0,0,1.68,4.08,5.72,5.72,0,0,0,4.14,1.68,5.54,5.54,0,0,0,3.69-1.38,5.89,5.89,0,0,0,3.6,1.21,5.66,5.66,0,0,0,4-1.64,5.54,5.54,0,0,0,1.74-4.06V138.66a3.92,3.92,0,0,1,.36-1.7A4.74,4.74,0,0,1,23,135.45a4.72,4.72,0,0,1,3.35-1.34,4.75,4.75,0,0,1,1.95.38,5.06,5.06,0,0,1,1.59,1.07,4.61,4.61,0,0,1,1,1.53,4.69,4.69,0,0,1,.37,1.89v10.75a5.29,5.29,0,0,0,1.8,4.06A5.75,5.75,0,0,0,37,155.27h.14A5.89,5.89,0,0,0,41,153.6l0,0,.06.08a5.29,5.29,0,0,0,4,1.78H55.24a11.93,11.93,0,0,0,4.44-.82,11.17,11.17,0,0,0,3.6-2.29,10.26,10.26,0,0,0,2.3-3.31,16.21,16.21,0,0,0,1.71,1.9,16.39,16.39,0,0,0,5.45,3.37,18.39,18.39,0,0,0,6.46,1.15,15.42,15.42,0,0,0,6.17-1.24,17.09,17.09,0,0,0,5.1-3.45,3.74,3.74,0,0,0,.41-.5L91,150a17.49,17.49,0,0,0,3,2.65,15.75,15.75,0,0,0,9.06,2.75,18.32,18.32,0,0,0,3.56-.33L107,155c.5-.15,1-.31,1.43-.46s.83-.29,1.22-.46a5.73,5.73,0,0,0,.84.58,5.33,5.33,0,0,0,2,.67,10.35,10.35,0,0,0,1.2.08,5.65,5.65,0,0,0,4-1.64,5.56,5.56,0,0,0,1.74-4.07V139.15a16.66,16.66,0,0,0-.25-2.84l.35.52v10.76a20.91,20.91,0,0,0,.12,2.58,8,8,0,0,0,.9,2.66,5.66,5.66,0,0,0,3.44,2.83,16.42,16.42,0,0,0,8.12,0,5.7,5.7,0,0,0,3.42-2.76,7.75,7.75,0,0,0,.92-2.66,20.44,20.44,0,0,0,.12-2.53V136.83l12.82-19.17A9.18,9.18,0,0,0,151.3,112.69Zm-49.88,31a5.61,5.61,0,0,1-1.68-1.14A4.9,4.9,0,0,1,98.62,141a4.12,4.12,0,0,1-.38-1.8,4.39,4.39,0,0,1,.37-1.8,5.4,5.4,0,0,1,2.7-2.71,4.07,4.07,0,0,1,1.75-.37,4.21,4.21,0,0,1,1.75.38,6,6,0,0,1,1.67,1.15,4.76,4.76,0,0,1,1.07,1.56,4.37,4.37,0,0,1,.38,1.79,4.63,4.63,0,0,1-.37,1.9,5.13,5.13,0,0,1-1.07,1.58,4.7,4.7,0,0,1-1.55,1,4.81,4.81,0,0,1-1.88.37A4,4,0,0,1,101.42,143.66Zm-41.09-9.32-.53-.24a5.23,5.23,0,0,0,2.29-.63v1.93A10.68,10.68,0,0,0,60.33,134.34ZM42.69,142.8a10.69,10.69,0,0,0,1.81,1.08l.25.12a5.37,5.37,0,0,0-2.06.62ZM8.53,152.42Z"/><path class="cls-1" d="M187.94,144.11l-16.7-34.5a8.26,8.26,0,0,0-7.64-4.88,8.7,8.7,0,0,0-7.73,4.86l-16.65,34.48a10.39,10.39,0,0,0-1.37,4.51c0,2.73,1.78,5,5.25,6.65a10.55,10.55,0,0,0,4.65,1.37,6.12,6.12,0,0,0,3.81-1.2,7.3,7.3,0,0,0,1.86-2c.28-.45.63-1.11,1.1-2l2.39-5h13.31l2.41,5c.42.84.77,1.5,1,2a6.83,6.83,0,0,0,2,2.18,6.3,6.3,0,0,0,3.74,1.12,10.55,10.55,0,0,0,4.66-1.37c3.48-1.74,5.25-4,5.25-6.71A10.24,10.24,0,0,0,187.94,144.11Z"/><path class="cls-1" d="M36.81,69.37v0A23.64,23.64,0,0,0,53.7,87.24a18.43,18.43,0,0,0,7.41.92c6,8.19,16.1,6.77,19.22,6.1a1.7,1.7,0,0,1,.69.09,19.4,19.4,0,0,0,16.64,3,1.83,1.83,0,0,1,.91.18,20.69,20.69,0,0,0,10.9,3.32,19.19,19.19,0,0,0,3.89-.41c2.35-.49,4.76-.95,7.09-1.4,4.67-.89,9.49-1.82,14.2-3a19.87,19.87,0,0,0,9-5.07c4.62-4.76,9.27-10,15.08-17.14,5.29-6.48,6-14.13,1.91-21.55-3.72-6.8-7.59-13.44-12.24-21.33-3.29-5.59-8.42-8.78-15.25-9.49a1.88,1.88,0,0,1-.85-.41c-2.25-2.51-5.82-6-10.75-7.18a115.91,115.91,0,0,0-15.24-2.62c-3-.32-5.95-.42-8.84-.51-2.32-.07-4.73-.15-7-.35C85.7,10,80.88,9.49,76.22,9c-2.84-.3-5.78-.61-8.68-.89-7.16-.7-11.44,2.66-12.39,9.73a19.11,19.11,0,0,0,4.3,14.6,21.58,21.58,0,0,0,15.68,8.41l.65,0c.28,0,.7,0,1,.08,2,2,3.94,4,5.81,6.06l.52.56a.35.35,0,0,1,0,.08,42.66,42.66,0,0,0-3.56,6.12,7,7,0,0,1-.39.74,3.53,3.53,0,0,1-.43,0c-7-.07-14.19-.07-21.1-.07H46.61c-4.33,0-7.55,2.05-9,5.79l0,.05c-.65,1.39-1.33,3.63-.82,8.6A3.73,3.73,0,0,0,36.81,69.37Zm.11.34a2.25,2.25,0,0,1-.1-.31C36.85,69.5,36.88,69.61,36.92,69.71Z"/><path class="cls-2" d="M8.53,117.44a2.53,2.53,0,0,1,1.89.82,2.69,2.69,0,0,1,.8,1.92v29.5a2.65,2.65,0,0,1-.8,1.94,2.59,2.59,0,0,1-1.89.8,2.71,2.71,0,0,1-2-.8,2.65,2.65,0,0,1-.8-1.94v-29.5a2.69,2.69,0,0,1,.8-1.92A2.65,2.65,0,0,1,8.53,117.44Z"/><path class="cls-2" d="M26.4,125.71a13.74,13.74,0,0,1,5.05,1,13,13,0,0,1,7.13,6.72,11.94,11.94,0,0,1,1.09,5.1v11.08a2.48,2.48,0,0,1-.79,1.86,2.82,2.82,0,0,1-1.89.82,2.72,2.72,0,0,1-1.9-.71,2.31,2.31,0,0,1-.79-1.81V139a7.85,7.85,0,0,0-.6-3.07A7.76,7.76,0,0,0,32,133.42a8.05,8.05,0,0,0-2.52-1.7,8.16,8.16,0,0,0-6.14-.06,8,8,0,0,0-2.47,1.62,8.17,8.17,0,0,0-1.7,2.41,7,7,0,0,0-.63,3v10.91a2.53,2.53,0,0,1-.82,1.89,2.68,2.68,0,0,1-1.92.79,2.82,2.82,0,0,1-1.92-.71,2.28,2.28,0,0,1-.82-1.81V139a13.54,13.54,0,0,1,1.1-5.15A13.73,13.73,0,0,1,17,129.61a12.68,12.68,0,0,1,4.17-2.85A13,13,0,0,1,26.4,125.71Z"/><path class="cls-2" d="M41.26,133.72a7.4,7.4,0,0,1,.61-3,8.37,8.37,0,0,1,1.64-2.52A8.1,8.1,0,0,1,46,126.48a7.71,7.71,0,0,1,3-.71H59.58a2.31,2.31,0,0,1,1.83.85,2.66,2.66,0,0,1,.74,1.78,2.58,2.58,0,0,1-.79,1.89,2.48,2.48,0,0,1-1.78.8H49.32a2.53,2.53,0,0,0-2,.77,2.67,2.67,0,0,0-.68,1.86,2.79,2.79,0,0,0,.68,1.86,2.47,2.47,0,0,0,2,.83h6.75a6.89,6.89,0,0,1,3,.65,7.64,7.64,0,0,1,2.36,1.76A8.65,8.65,0,0,1,63,141.37a8.1,8.1,0,0,1,.57,3,8.48,8.48,0,0,1-.6,3.23,7.17,7.17,0,0,1-1.73,2.55,8.14,8.14,0,0,1-2.63,1.67,8.68,8.68,0,0,1-3.32.61H45.1a2.29,2.29,0,0,1-1.78-.77,2.68,2.68,0,0,1-.69-1.86,2.84,2.84,0,0,1,.74-1.9,2.57,2.57,0,0,1,1.84-.9h10a2.9,2.9,0,0,0,2.06-.69,2.51,2.51,0,0,0,.74-1.94,2.43,2.43,0,0,0-.74-2,3.18,3.18,0,0,0-2.06-.6H48.66a6.65,6.65,0,0,1-2.87-.63,7.47,7.47,0,0,1-2.36-1.73,7.94,7.94,0,0,1-1.59-2.57A8.45,8.45,0,0,1,41.26,133.72Z"/><path class="cls-2" d="M68,117.33a2.62,2.62,0,0,1,2,.85,3.39,3.39,0,0,1,.9,2.11v4.93H83.54a2.49,2.49,0,0,1,1.92.85,2.84,2.84,0,0,1,.76,2,2.79,2.79,0,0,1-.82,2,2.49,2.49,0,0,1-1.86.88H70.87v8a7.9,7.9,0,0,0,.6,3,8,8,0,0,0,1.68,2.55,8.19,8.19,0,0,0,2.52,1.75,7.41,7.41,0,0,0,3.1.66,8.37,8.37,0,0,0,3.15-.52,7.16,7.16,0,0,0,2.27-1.45h0a2.82,2.82,0,0,1,2-.77,2.88,2.88,0,0,1,2,.82,2.51,2.51,0,0,1,.76,1.92,3.21,3.21,0,0,1-.13.9,1.64,1.64,0,0,1-.52.8h0a14.17,14.17,0,0,1-4.19,2.85,12.32,12.32,0,0,1-5,1,15.2,15.2,0,0,1-5.4-1,13.27,13.27,0,0,1-4.44-2.74,13.66,13.66,0,0,1-4.25-9.85V120.29a3.07,3.07,0,0,1,.8-2A2.57,2.57,0,0,1,68,117.33Z"/><path class="cls-2" d="M104.65,125.93a12.94,12.94,0,0,1,4.63,1.43,13.27,13.27,0,0,1,3.73,2.93,13.83,13.83,0,0,1,2.46,4.06,12.76,12.76,0,0,1,.91,4.8v10.58a2.53,2.53,0,0,1-.82,1.89,2.63,2.63,0,0,1-1.87.8,6.77,6.77,0,0,1-.85-.06,2.18,2.18,0,0,1-.9-.3,2.82,2.82,0,0,1-.8-.68,2.23,2.23,0,0,1-.41-1.21c-.18.07-.51.24-1,.49l-1,.55a11.77,11.77,0,0,1-1.26.49c-.44.15-.89.3-1.37.44a14.52,14.52,0,0,1-3,.28,12.7,12.7,0,0,1-7.35-2.22,13.73,13.73,0,0,1-4.82-5.73,12.94,12.94,0,0,1-.85-2.55,12.71,12.71,0,0,1-.3-2.77,12.24,12.24,0,0,1,.3-2.74,14.17,14.17,0,0,1,.85-2.58,13.51,13.51,0,0,1,4.82-5.76,12.82,12.82,0,0,1,7.35-2.19h.77C104.1,125.88,104.35,125.9,104.65,125.93ZM103.06,147a7.89,7.89,0,0,0,3-.6,7.65,7.65,0,0,0,2.52-1.67,8.2,8.2,0,0,0,1.7-2.5,7.63,7.63,0,0,0,.63-3.12,7.47,7.47,0,0,0-.63-3,7.81,7.81,0,0,0-1.73-2.52,9,9,0,0,0-2.52-1.73,7.07,7.07,0,0,0-3-.66,7.19,7.19,0,0,0-3,.63,8.42,8.42,0,0,0-2.5,1.73,8.06,8.06,0,0,0-1.72,2.52,7.46,7.46,0,0,0,0,6.09,8.21,8.21,0,0,0,1.78,2.49,8.79,8.79,0,0,0,2.53,1.7A6.93,6.93,0,0,0,103.06,147Z"/><path class="cls-3" d="M145.25,108.61q3,2.1,3,4.08a6.64,6.64,0,0,1-1.42,3.27l-13.34,20v11.8a16,16,0,0,1-.1,2.13,4.85,4.85,0,0,1-.58,1.64,2.73,2.73,0,0,1-1.67,1.3,13.59,13.59,0,0,1-6.3,0,2.7,2.7,0,0,1-1.67-1.33,5.43,5.43,0,0,1-.59-1.67,19.1,19.1,0,0,1-.09-2.19V135.91l-13.34-20a6.64,6.64,0,0,1-1.42-3.27c0-1.32.9-2.59,2.72-3.8s3.11-1.82,3.89-1.82a3.08,3.08,0,0,1,1.85.49,8.5,8.5,0,0,1,2.23,2.53L128,125.41l9.57-15.32a9,9,0,0,1,2-2.44,3.51,3.51,0,0,1,2-.58A8.19,8.19,0,0,1,145.25,108.61Z"/><path class="cls-3" d="M168.54,111l16.68,34.47a8.06,8.06,0,0,1,1.05,3.15c0,1.48-1.2,2.82-3.58,4a8.18,8.18,0,0,1-3.31,1,3.33,3.33,0,0,1-2-.55,3.8,3.8,0,0,1-1.11-1.18c-.22-.41-.54-1-.95-1.85l-3.22-6.67H155l-3.21,6.67c-.41.82-.73,1.42-1,1.79a4.19,4.19,0,0,1-1.11,1.14,3.17,3.17,0,0,1-2,.59,8.1,8.1,0,0,1-3.3-1.05q-3.58-1.72-3.58-3.95a8.06,8.06,0,0,1,1-3.15L158.6,110.9a5.41,5.41,0,0,1,2.06-2.29,5.54,5.54,0,0,1,2.94-.86A5.23,5.23,0,0,1,168.54,111Zm-5,14.82-4.08,8.47h8.22Z"/><path class="cls-2" d="M158,53.73c-3.92-7.16-8-14.21-12.19-21.25-2.89-4.89-7.31-7.43-13-8a4.66,4.66,0,0,1-2.78-1.39c-2.58-2.87-5.51-5.36-9.22-6.26A113.1,113.1,0,0,0,106,14.25c-5.25-.55-10.57-.41-15.83-.85-7.65-.63-15.28-1.55-22.93-2.3-5.48-.53-8.38,1.68-9.1,7.13a16,16,0,0,0,3.67,12.33,18.66,18.66,0,0,0,13.56,7.27c1.1.09,2.52.05,3.19.7,2.93,2.83,5.65,5.88,8.32,8.72A67.67,67.67,0,0,0,82.21,55c-.82,1.83-1.6,2.57-3.6,2.55-10.66-.1-21.31,0-32-.08-2.94,0-5.2,1.18-6.28,3.92-.2.5-1.18,1.89-.63,7.18A20.61,20.61,0,0,0,54.54,84.34c6.13,1.85,7.81.12,8.09.62,4.83,8.46,14.38,6.93,17.06,6.35a4.29,4.29,0,0,1,3.06.56,16.34,16.34,0,0,0,14.16,2.58,4.62,4.62,0,0,1,3.23.52c3.93,2.39,8,3.49,12.61,2.53,7-1.46,14.18-2.61,21.16-4.39a16.78,16.78,0,0,0,7.58-4.24c5.24-5.4,10.14-11.13,14.91-17C161,66.33,161.46,60.06,158,53.73ZM129.27,29.85a15.35,15.35,0,0,1,1.66-.09c-5.7,6.49-10.92,12.68-16.47,18.55-1.19,1.26-3.57,1.54-5.47,1.94-6.18,1.32-12.4,2.48-18.6,3.69a14.82,14.82,0,0,1-1.9,0c1.37-1.71,2.33-3,3.4-4.21,3.29-3.72,6.85-7.23,9.87-11.15,2.65-3.43,6.16-4.6,10.09-5.34C117.67,32.15,123.47,31,129.27,29.85ZM83.93,38.14c5.5-2.51,10.8-4.91,16.08-7.35,1.55-.71,2.66-1.87,1.62-3.57s-2.44-1.06-3.78-.25a46.62,46.62,0,0,1-15.95,6.4c-8.11,1.44-15.23-1.69-18.29-8.21a12.88,12.88,0,0,1-1-3.18c-.88-5.08.43-6.73,5.51-6.34,9.25.71,18.48,1.74,27.74,2.49,5.74.46,11.53.41,17.25,1a21.3,21.3,0,0,1,13.05,6.07c-3.54.73-6.61,1.37-9.69,2-2.67.53-5.34,1-8,1.58a17.46,17.46,0,0,0-10.13,6c-2,2.4-4.08,4.73-6.24,7a2.63,2.63,0,0,1-2.19.7A10.84,10.84,0,0,1,83.93,38.14Zm14.85,51c-4,1.87-8.1,2.45-12.1,0,4.12-3.48,8.11-6.77,12-10.16,1.31-1.14,3.51-2.45,1.62-4.46s-3.16.14-4.55,1.27c-3.79,3.07-7.4,6.43-11.52,9-4.91,3-10.26,3.52-15.37,0a31.1,31.1,0,0,1-2.6-2.26c1-.42,1.72-.66,2.38-1,4.57-2.45,9.16-4.88,13.69-7.41,1.32-.74,2.42-1.93,1.25-3.53s-2.5-.89-3.78,0c-5.09,3.53-10.33,6.71-16.52,8-7.44,1.57-13.9-.65-17.51-6.4a15.46,15.46,0,0,1-2-5.09c-.73-3.58.76-5.28,4.41-5.29,10.88,0,21.77,0,32.66,0,5.43,0,10.9-.4,16.29.06,8.38.7,14.14,6,16,14.23a3.12,3.12,0,0,1-.54,2.51C108.53,82.73,104.18,86.64,98.78,89.13Zm25.88.9c-4,.78-8,1.67-12,2.2a52,52,0,0,1-7.17,0l-.1-.83a13,13,0,0,1,1.06-1.16c3.46-3,6.89-6,10.41-8.86,1.73-1.42,2-3,1.51-5.11-2.25-9.12-7.14-15.83-16.49-18.9,3-.58,6.14-1,9.15-1.77,2.07-.52,3.27.06,4.29,1.88,3.26,5.88,6.63,11.7,10,17.53,1.83,3.19,3.73,6.35,5.56,9.54.63,1.1,1.16,2.25,1.94,3.79C129.88,88.92,127.28,89.52,124.66,90Zm27.54-20.4q-6,6.89-12,13.76c-.67.76-1.39,1.48-2.26,2.41-.6-.94-1.08-1.64-1.5-2.38-5.58-9.63-11.09-19.29-16.75-28.86-1.13-1.91-1-3.1.5-4.74,5.65-6.21,11.14-12.57,17.19-19.45a43.5,43.5,0,0,1,4.32,5.14c4,6.72,7.92,13.53,11.82,20.34A11.2,11.2,0,0,1,152.2,69.63Z"/><path class="cls-4" d="M52.27,94.47c.35.39,1.5,1.23,1.37,1.59a3.73,3.73,0,0,1-2,2.18c-5.15,1.43-10.36,2.65-15.54,4-3.33.84-6.65,1.68-10,2.6-1.34.36-2.5.29-2.9-1.17s.62-2.07,1.94-2.41c8.43-2.14,16.85-4.32,25.28-6.48C50.88,94.63,51.28,94.61,52.27,94.47Z"/><path class="cls-5" d="M38.05,63.9c.36.4,1.51,1.24,1.37,1.6a3.7,3.7,0,0,1-2,2.18c-5.14,1.43-10.35,2.64-15.53,3.95-3.33.84-6.66,1.68-10,2.59-1.34.37-2.5.3-2.9-1.16S9.69,71,11,70.65c8.43-2.14,16.85-4.32,25.27-6.48C36.66,64.07,37.07,64.05,38.05,63.9Z"/><path class="cls-6" d="M25.53,35.81c-.36-.39-1.44-1.17-1.32-1.52A3.67,3.67,0,0,1,26,32.05c4.91-1.43,9.89-2.64,14.84-3.92,2.79-.71,5.55-1.55,8.37-2.07.74-.13,1.67.69,2.52,1.08-.53.82-.9,2.21-1.6,2.4-7.86,2.14-15.78,4.09-23.68,6.09Z"/><path class="cls-7" d="M51.55,51.89c-.31-.3-1.52-1.19-1.41-1.41.47-.92,1.2-2.11,2.07-2.35,5.93-1.66,11.91-3.1,17.88-4.61a47.66,47.66,0,0,1,5.59-1.31,2.63,2.63,0,0,1,2.18,1.11c.54,1.19-.17,2.13-1.49,2.46L52.9,51.72C52.66,51.78,52.42,51.79,51.55,51.89Z"/><path class="cls-8" d="M39.63,43.65c-.33-.33-1.38-.92-1.41-1.54A2.59,2.59,0,0,1,39.61,40Q49.42,37.32,59.32,35c.76-.18,1.78.74,2.68,1.15-.53.75-.92,2-1.6,2.19-6.53,1.84-13.11,3.5-19.68,5.21C40.57,43.56,40.4,43.56,39.63,43.65Z"/><path class="cls-9" d="M21.71,81.84c-.29-.29-1.18-.78-1.21-1.32a2.24,2.24,0,0,1,1.19-1.77q8.37-2.32,16.84-4.32c.65-.15,1.51.63,2.28,1-.45.64-.78,1.71-1.37,1.87-5.57,1.57-11.19,3-16.8,4.45C22.5,81.76,22.37,81.76,21.71,81.84Z"/><path class="cls-10" d="M21.88,59.55c-.39-.41-1.39-1-1.38-1.55a2.74,2.74,0,0,1,1.32-2.13c2.33-.8,4.77-1.28,7.17-1.9,3.57-.91,7.13-1.81,10.69-2.75,1.27-.34,2.5-.46,2.92,1.09s-.59,2.13-1.91,2.47c-5.81,1.48-11.61,3-17.42,4.48C23,59.34,22.65,59.39,21.88,59.55Z"/><path class="cls-11" d="M29,92.77c-.45-.43-1.51-1-1.54-1.58a2.57,2.57,0,0,1,1.33-2.08,71.82,71.82,0,0,1,8.76-2.17c.69-.12,1.56.82,2.34,1.28-.54.74-.94,1.92-1.64,2.15C35.41,91.28,32.45,91.91,29,92.77Z"/><path class="cls-12" d="M61.39,94.75c-.3-.29-1-.66-1-1.07a1.74,1.74,0,0,1,.9-1.41,47,47,0,0,1,6-1.48c.47-.08,1.06.56,1.59.87-.37.5-.64,1.31-1.12,1.46C65.73,93.74,63.72,94.17,61.39,94.75Z"/><path class="cls-13" d="M45,88.72c-.33-.3-1.07-.69-1.1-1.12a1.83,1.83,0,0,1,1-1.47,49,49,0,0,1,6.21-1.54c.48-.09,1.1.58,1.66.9C52.32,86,52,86.86,51.54,87,49.51,87.67,47.41,88.11,45,88.72Z"/><path class="cls-14" d="M86.68,89.1c4.12-3.48,8.11-6.77,12-10.16,1.31-1.14,3.51-2.45,1.62-4.46s-3.16.14-4.55,1.27c-3.79,3.07-7.4,6.43-11.52,9-4.91,3-10.26,3.52-15.37,0a31.1,31.1,0,0,1-2.6-2.26c1-.42,1.72-.66,2.38-1,4.57-2.45,9.16-4.88,13.69-7.41,1.32-.74,2.42-1.93,1.25-3.53s-2.5-.89-3.78,0c-5.09,3.53-10.33,6.71-16.52,8-7.44,1.57-13.9-.65-17.51-6.4a15.46,15.46,0,0,1-2-5.09c-.73-3.58.76-5.28,4.41-5.29,10.88,0,21.77,0,32.66,0,5.43,0,10.9-.4,16.29.06,8.38.7,14.14,6,16,14.23a3.12,3.12,0,0,1-.54,2.51c-4.11,4.18-8.46,8.09-13.86,10.58C94.74,91,90.68,91.58,86.68,89.1Z"/><path class="cls-3" d="M137.39,30.37a43.5,43.5,0,0,1,4.32,5.14c4,6.72,7.92,13.53,11.82,20.34a11.2,11.2,0,0,1-1.33,13.78q-6,6.89-12,13.76c-.67.76-1.39,1.48-2.26,2.41-.6-.94-1.08-1.64-1.5-2.38-5.58-9.63-11.09-19.29-16.75-28.86-1.13-1.91-1-3.1.5-4.74C125.85,43.61,131.34,37.25,137.39,30.37Z"/><path class="cls-15" d="M83.93,38.14c5.5-2.51,10.8-4.91,16.08-7.35,1.55-.71,2.66-1.87,1.62-3.57s-2.44-1.06-3.78-.25a46.62,46.62,0,0,1-15.95,6.4c-8.11,1.44-15.23-1.69-18.29-8.21a12.88,12.88,0,0,1-1-3.18c-.88-5.08.43-6.73,5.51-6.34,9.25.71,18.48,1.74,27.74,2.49,5.74.46,11.53.41,17.25,1a21.3,21.3,0,0,1,13.05,6.07c-3.54.73-6.61,1.37-9.69,2-2.67.53-5.34,1-8,1.58a17.46,17.46,0,0,0-10.13,6c-2,2.4-4.08,4.73-6.24,7a2.63,2.63,0,0,1-2.19.7A10.84,10.84,0,0,1,83.93,38.14Z"/><path class="cls-16" d="M130.93,29.76c-5.7,6.49-10.92,12.68-16.47,18.55-1.19,1.26-3.57,1.54-5.47,1.94-6.18,1.32-12.4,2.48-18.6,3.69a14.82,14.82,0,0,1-1.9,0c1.37-1.71,2.33-3,3.4-4.21,3.29-3.72,6.85-7.23,9.87-11.15,2.65-3.43,6.16-4.6,10.09-5.34,5.82-1.1,11.62-2.27,17.42-3.4A15.35,15.35,0,0,1,130.93,29.76Z"/><path class="cls-17" d="M101.84,57.33c3-.58,6.14-1,9.15-1.77,2.07-.52,3.27.06,4.29,1.88,3.26,5.88,6.63,11.7,10,17.53,1.83,3.19,3.73,6.35,5.56,9.54.63,1.1,1.16,2.25,1.94,3.79-2.88.62-5.48,1.22-8.1,1.73-4,.78-8,1.67-12,2.2a52,52,0,0,1-7.17,0l-.1-.83a13,13,0,0,1,1.06-1.16c3.46-3,6.89-6,10.41-8.86,1.73-1.42,2-3,1.51-5.11C116.08,67.11,111.19,60.4,101.84,57.33Z"/><path class="cls-1" d="M136.75,59.35a2.32,2.32,0,0,1,.95-.58.87.87,0,0,1,.68.14,3.35,3.35,0,0,1,.7.68,3.12,3.12,0,0,1,.51.82.82.82,0,0,1,0,.65,2.45,2.45,0,0,1-.74.93c-2.23,1.92-3.35,2.73-5.57,4.82a1.41,1.41,0,0,1-1.29.35,2.09,2.09,0,0,1-1.26-.75,2.65,2.65,0,0,1-.69-1.93,7,7,0,0,1,.53-2.16c.29-.73.56-1.46.81-2.2a7.85,7.85,0,0,0,.42-2.17,2.42,2.42,0,0,0-.48-1.71,1.83,1.83,0,0,0-.41-.29,2.06,2.06,0,0,0-.55-.2,1.33,1.33,0,0,0-.61,0,2,2,0,0,0-.82.47,1.53,1.53,0,0,0-.51,1,1.64,1.64,0,0,0,.19,1l.21.38.08.09a5.8,5.8,0,0,1,.37.51,1.18,1.18,0,0,1,.17.48c.05.35-.24.79-.88,1.28s-1.31.67-1.71.42a2.81,2.81,0,0,1-.6-.65,5.59,5.59,0,0,1-1.14-3.63,4.78,4.78,0,0,1,1.79-3.6,4.54,4.54,0,0,1,3.78-1.16,5.15,5.15,0,0,1,3.36,1.88,4.8,4.8,0,0,1,.95,1.9,5.24,5.24,0,0,1,.13,1.94,9.48,9.48,0,0,1-.81,2.92l-.24.46.06.07Z"/><path class="cls-1" d="M137.29,45.53a.9.9,0,0,1,.14-.62,4.8,4.8,0,0,1,.54-.67,1.92,1.92,0,0,1,.51-.44.27.27,0,0,1,.34.06,1.11,1.11,0,0,1,.25.33c.07.12.16.3.3.54,2,3.46,5.29,4.84,7.56,7.71a2.21,2.21,0,0,1,.47.87,1.18,1.18,0,0,1-.08.74,3.08,3.08,0,0,1-.49.8,2.15,2.15,0,0,1-.63.58,1.11,1.11,0,0,1-.49.17.69.69,0,0,1-.42-.13,3.36,3.36,0,0,1-.71-.69L143.11,53l-3.86,3.32c-.67.57-1.21.72-1.64.46a2.86,2.86,0,0,1-.59-.58,3.72,3.72,0,0,1-.44-.62l-2.84-6a5.81,5.81,0,0,1-.27-.64,1,1,0,0,1,0-.56,1,1,0,0,1,.36-.58,3.11,3.11,0,0,1,.74-.46c.82-.39,1.41-.36,1.77.08a3.52,3.52,0,0,1,.41.71.08.08,0,0,0,0,.05c.82,1.74,1.24,2.6,2.06,4.34l2.32-2c-1.3-1.6-2.07-2.38-3.3-4-.17-.23-.3-.4-.37-.52A1.56,1.56,0,0,1,137.29,45.53Z"/><path class="cls-1" d="M136.31,65.69a.47.47,0,0,1,.36-.12.44.44,0,0,1,.35.17c1.37,1.68,2.33,3.08,4,5.31a.77.77,0,0,1,.16.48.57.57,0,0,1-.13.44.41.41,0,0,1-.37.13.54.54,0,0,1-.39-.23c-.7-.87-1.08-1.34-1.76-2.27-.7.77-1.08,1.16-1.86,1.92a21,21,0,0,0,1.69,2.12.5.5,0,0,1-.09.77.71.71,0,0,1-.43.13.62.62,0,0,1-.42-.18,24,24,0,0,1-3.72-5.4.76.76,0,0,1-.09-.51.78.78,0,0,1,.17-.4.4.4,0,0,1,.37-.14.44.44,0,0,1,.33.24c.55.88.83,1.36,1.45,2.29.75-.77,1.12-1.16,1.81-1.91-.65-.9-1-1.34-1.52-2.1a.62.62,0,0,1-.11-.4A.47.47,0,0,1,136.31,65.69Z"/><path class="cls-1" d="M139.78,64.86a1.8,1.8,0,0,1,.81-.42,2.06,2.06,0,0,1,.89,0,2.49,2.49,0,0,1,.86.32,2.57,2.57,0,0,1,.73.67,3.11,3.11,0,0,1,.48.92,3.81,3.81,0,0,1,.17,1,3.21,3.21,0,0,1-.13,1,3,3,0,0,1-.44,1,1.91,1.91,0,0,1-.68.65,1.35,1.35,0,0,1-.84.18,2.09,2.09,0,0,1-.93-.36,3.38,3.38,0,0,1-.89-.85,4.06,4.06,0,0,1-.6-1.12,3.59,3.59,0,0,1-.2-1.13,2.51,2.51,0,0,1,.2-1A2.22,2.22,0,0,1,139.78,64.86Zm.63.8a1.33,1.33,0,0,0-.33.47,1.83,1.83,0,0,0-.1.62,2.4,2.4,0,0,0,.13.68,2.43,2.43,0,0,0,.36.67,1.89,1.89,0,0,0,.5.48,1.55,1.55,0,0,0,.56.23.93.93,0,0,0,.52-.07,1.13,1.13,0,0,0,.42-.34,1.47,1.47,0,0,0,.26-.55,1.94,1.94,0,0,0,.07-.63,2.39,2.39,0,0,0-.11-.65,1.94,1.94,0,0,0-.3-.57,1.64,1.64,0,0,0-1-.61,1.21,1.21,0,0,0-1,.26Z"/><path class="cls-1" d="M145.09,66.85a.37.37,0,0,1-.32.1.59.59,0,0,1-.33-.17c-.52-.65-.79-1-1.29-1.67a2.48,2.48,0,0,1-.48-1.8,2.5,2.5,0,0,1,.81-1.62.39.39,0,0,1,.35-.07.53.53,0,0,1,.33.17.61.61,0,0,1,.08.39.5.5,0,0,1-.16.35,1.3,1.3,0,0,0-.34.43,1.61,1.61,0,0,0-.15.53,1.84,1.84,0,0,0,0,.57,1.65,1.65,0,0,0,.27.55c.49.66.74,1,1.25,1.6a.54.54,0,0,1,.07.33A.41.41,0,0,1,145.09,66.85Z"/><path class="cls-1" d="M145.64,59.81a2.4,2.4,0,0,1,.79-.38,2.7,2.7,0,0,1,.79-.09,2,2,0,0,1,.74.2,2.31,2.31,0,0,1,.66.54c.5.59.78.9,1.35,1.5a.58.58,0,0,1,.16.39.55.55,0,0,1-.15.4l-.12.12a.39.39,0,0,1-.16.1.44.44,0,0,1-.2,0,.29.29,0,0,1-.21-.1s0,.11-.08.22-.06.18-.07.23l-.12.25c-.05.08-.09.17-.14.26a2.83,2.83,0,0,1-.41.45,2.29,2.29,0,0,1-1.33.67,2,2,0,0,1-1.32-.25,2.7,2.7,0,0,1-.4-.29,2.57,2.57,0,0,1-.35-.39,2.4,2.4,0,0,1-.27-.46,3,3,0,0,1-.15-2,2.49,2.49,0,0,1,.77-1.24l.1-.1Zm2.18,3.39a1.73,1.73,0,0,0,.36-.52,1.87,1.87,0,0,0,.14-.61,1.83,1.83,0,0,0-.08-.61,1.42,1.42,0,0,0-.29-.54,1.24,1.24,0,0,0-.42-.34,1.13,1.13,0,0,0-.51-.12,1.58,1.58,0,0,0-.52.09,1.27,1.27,0,0,0-.49.28,1.32,1.32,0,0,0-.34.47,1.61,1.61,0,0,0-.16.58,1.75,1.75,0,0,0,.05.6,1.61,1.61,0,0,0,.25.55,1.23,1.23,0,0,0,.43.39,1.42,1.42,0,0,0,.53.16,1.52,1.52,0,0,0,.56-.08A1.54,1.54,0,0,0,147.82,63.2Z"/><path class="cls-1" d="M148.17,59.07a1.58,1.58,0,0,1-.26-.5,2.35,2.35,0,0,1-.08-.6,2.47,2.47,0,0,1,.08-.6,2.34,2.34,0,0,1,.25-.56c.44-.65.65-1,1.08-1.62a.36.36,0,0,1,.28-.18.29.29,0,0,1,.25.1.5.5,0,0,1,.09.35.61.61,0,0,1-.11.36c-.42.61-.61,1-1,1.61a.68.68,0,0,0-.12.42.57.57,0,0,0,.14.36.35.35,0,0,0,.28.14c.11,0,.21-.07.3-.22.27-.44.39-.66.66-1.08a1,1,0,0,1,.37-.37.84.84,0,0,1,.46-.1,1,1,0,0,1,.5.15,1.71,1.71,0,0,1,.49.38,2.45,2.45,0,0,1,.41.6,2.11,2.11,0,0,1,.21.66,1.67,1.67,0,0,1,0,.63,1.44,1.44,0,0,1-.26.58c-.43.59-.65.91-1.14,1.54a.41.41,0,0,1-.33.16.45.45,0,0,1-.34-.16.64.64,0,0,1-.17-.39.7.7,0,0,1,.08-.43c.46-.64.66-1,1.07-1.58a.58.58,0,0,0,.11-.42.77.77,0,0,0-.21-.41c-.13-.14-.25-.2-.35-.18a.43.43,0,0,0-.29.23L149.93,59a1,1,0,0,1-.38.38,1,1,0,0,1-.47.14,1.05,1.05,0,0,1-.49-.1A1.24,1.24,0,0,1,148.17,59.07Z"/><path class="cls-2" d="M27,183.86l0-16.27-8,13.74h-.68l-8-13.68v16.21H9v-19h1.17l8.5,14.69,8.5-14.69h1.14l0,19Z"/><path class="cls-2" d="M48.12,182.61v1.25H35v-19H47.72v1.25H36.39v7.49H46.52v1.23H36.39v7.79Z"/><path class="cls-2" d="M68.65,164.85v19H67.51l-13-16.51v16.51H53.17v-19h1.17l12.93,16.51V164.85Z"/><path class="cls-2" d="M76.3,183.28a7.61,7.61,0,0,1-3-1.87l.63-1a7.4,7.4,0,0,0,2.7,1.73,9.75,9.75,0,0,0,3.57.66,6.79,6.79,0,0,0,4.1-1,3.21,3.21,0,0,0,1.39-2.69,2.78,2.78,0,0,0-.74-2,4.76,4.76,0,0,0-1.82-1.17,25.17,25.17,0,0,0-2.93-.84,28.88,28.88,0,0,1-3.35-1,5.26,5.26,0,0,1-2.15-1.51,4,4,0,0,1-.88-2.73,4.61,4.61,0,0,1,.73-2.53,5.07,5.07,0,0,1,2.24-1.84,9.23,9.23,0,0,1,3.76-.68,10.6,10.6,0,0,1,3.1.47,9,9,0,0,1,2.63,1.24l-.51,1.12a8.68,8.68,0,0,0-2.51-1.2,9.57,9.57,0,0,0-2.71-.4,6.46,6.46,0,0,0-4,1.05,3.33,3.33,0,0,0-1.36,2.75,2.78,2.78,0,0,0,.74,2,4.69,4.69,0,0,0,1.82,1.17,28.13,28.13,0,0,0,3,.87,28.63,28.63,0,0,1,3.34,1,5.36,5.36,0,0,1,2.13,1.48,3.86,3.86,0,0,1,.88,2.67,4.52,4.52,0,0,1-.75,2.53,5.09,5.09,0,0,1-2.29,1.82,9.5,9.5,0,0,1-3.8.67A11.05,11.05,0,0,1,76.3,183.28Z"/><path class="cls-2" d="M103.58,178.51h-11l-2.42,5.35H88.64l8.75-19h1.38l8.74,19H106Zm-.52-1.17-5-11-5,11Z"/><path class="cls-2" d="M110.19,183.28a5.69,5.69,0,0,1-2.16-2l.84-.92a5.67,5.67,0,0,0,1.86,1.77,4.66,4.66,0,0,0,2.35.62,3.53,3.53,0,0,0,2.84-1.1,5.18,5.18,0,0,0,.94-3.39V166.1h-7v-1.25h8.39v13.41a6.21,6.21,0,0,1-1.3,4.3,5,5,0,0,1-3.86,1.43A6,6,0,0,1,110.19,183.28Z"/><path class="cls-2" d="M137.82,182.61v1.25H124.7v-19h12.71v1.25H126.09v7.49h10.13v1.23H126.09v7.79Z"/><path class="cls-2" d="M156.07,183.86l-4.53-6.36a14.07,14.07,0,0,1-1.85.14h-5.43v6.22h-1.39v-19h6.82a8.53,8.53,0,0,1,5.62,1.7,5.79,5.79,0,0,1,2,4.71,5.81,5.81,0,0,1-4.46,6l4.76,6.65Zm-6.38-7.44a7,7,0,0,0,4.64-1.35,5.35,5.35,0,0,0,0-7.63,7.07,7.07,0,0,0-4.64-1.34h-5.43v10.32Z"/><path class="cls-2" d="M162.43,164.85h1.38v19h-1.38Z"/><path class="cls-2" d="M182.2,178.51h-11l-2.42,5.35h-1.49l8.74-19h1.39l8.74,19h-1.49Zm-.52-1.17-5-11-5,11Z"/><rect class="cls-18" x="4.75" y="156.16" width="181.39" height="2.97"/></svg>