<svg id="Capa_1" data-name="Capa 1" xmlns="http://www.w3.org/2000/svg" xmlns:xlink="http://www.w3.org/1999/xlink" viewBox="0 0 512 512"><defs><style>.cls-1{fill:#fff;}.cls-2{fill:#00335f;}.cls-3{fill:#009fe3;}.cls-10,.cls-11,.cls-12,.cls-13,.cls-18,.cls-4,.cls-5,.cls-6,.cls-7,.cls-8,.cls-9{opacity:0.63;}.cls-4{fill:url(#Degradado_sin_nombre_128);}.cls-5{fill:url(#Degradado_sin_nombre_128-2);}.cls-6{fill:url(#Degradado_sin_nombre_128-3);}.cls-7{fill:url(#Degradado_sin_nombre_128-4);}.cls-8{fill:url(#Degradado_sin_nombre_128-5);}.cls-9{fill:url(#Degradado_sin_nombre_128-6);}.cls-10{fill:url(#Degradado_sin_nombre_128-7);}.cls-11{fill:url(#Degradado_sin_nombre_128-8);}.cls-12{fill:url(#Degradado_sin_nombre_128-9);}.cls-13{fill:url(#Degradado_sin_nombre_128-10);}.cls-14{fill:url(#Degradado_sin_nombre_72);}.cls-15{fill:url(#Degradado_sin_nombre_72-2);}.cls-16{fill:#e30613;}.cls-17{fill:#0069b4;}.cls-18{fill:url(#Degradado_sin_nombre_129);}</style><linearGradient id="Degradado_sin_nombre_128" x1="61.5" y1="265.93" x2="142.88" y2="265.93" gradientUnits="userSpaceOnUse"><stop offset="0" stop-color="#fff"/><stop offset="0.18" stop-color="#e9f6fd"/><stop offset="0.54" stop-color="#c2e7fa"/><stop offset="0.82" stop-color="#aadef9"/><stop offset="1" stop-color="#a1daf8"/></linearGradient><linearGradient id="Degradado_sin_nombre_128-2" x1="23.53" y1="184.3" x2="104.91" y2="184.3" xlink:href="#Degradado_sin_nombre_128"/><linearGradient id="Degradado_sin_nombre_128-3" x1="64.22" y1="82.19" x2="137.8" y2="82.19" xlink:href="#Degradado_sin_nombre_128"/><linearGradient id="Degradado_sin_nombre_128-4" x1="133.5" y1="125.25" x2="208.04" y2="125.25" xlink:href="#Degradado_sin_nombre_128"/><linearGradient id="Degradado_sin_nombre_128-5" x1="101.68" y1="104.56" x2="165.17" y2="104.56" xlink:href="#Degradado_sin_nombre_128"/><linearGradient id="Degradado_sin_nombre_128-6" x1="54.35" y1="208.26" x2="108.58" y2="208.26" xlink:href="#Degradado_sin_nombre_128"/><linearGradient id="Degradado_sin_nombre_128-7" x1="54.35" y1="147.23" x2="113.63" y2="147.23" xlink:href="#Degradado_sin_nombre_128"/><linearGradient id="Degradado_sin_nombre_128-8" x1="72.98" y1="239.57" x2="106.19" y2="239.57" xlink:href="#Degradado_sin_nombre_128"/><linearGradient id="Degradado_sin_nombre_128-9" x1="160.77" y1="247.37" x2="183.32" y2="247.37" xlink:href="#Degradado_sin_nombre_128"/><linearGradient id="Degradado_sin_nombre_128-10" x1="116.82" y1="231.03" x2="140.36" y2="231.03" xlink:href="#Degradado_sin_nombre_128"/><linearGradient id="Degradado_sin_nombre_72" x1="296.47" y1="205.01" x2="184.98" y2="200.55" gradientUnits="userSpaceOnUse"><stop offset="0" stop-color="#fff"/><stop offset="0.44" stop-color="#f9fdff"/><stop offset="1" stop-color="#eaf6fe"/></linearGradient><linearGradient id="Degradado_sin_nombre_72-2" x1="293.99" y1="80.56" x2="182.51" y2="76.1" xlink:href="#Degradado_sin_nombre_72"/><linearGradient id="Degradado_sin_nombre_129" x1="12.26" y1="420.65" x2="496.75" y2="420.65" gradientUnits="userSpaceOnUse"><stop offset="0" stop-color="#a1daf8"/><stop offset="0.18" stop-color="#aadef9"/><stop offset="0.46" stop-color="#c2e7fa"/><stop offset="0.82" stop-color="#e9f6fd"/><stop offset="1" stop-color="#fff"/></linearGradient></defs><path class="cls-1" d="M403.71,300.57c0-6.3-3.89-12.19-11.55-17.51l-.33-.22c-5.92-3.7-10.22-5.35-13.93-5.35a17.32,17.32,0,0,0-9.89,3c-2.53,1.72-5,4.54-7.76,8.92l-18.73,30-18.75-30c-2.69-4.25-5.37-7.23-8.2-9.11a16.22,16.22,0,0,0-9.51-2.73c-3.91,0-8.37,1.87-14.88,6.23-7.2,4.82-10.84,10.49-10.84,16.85,0,3.84,1.65,8.05,5.16,13.23l13.78,20.62c-1-.63-2-1.23-3-1.78h0a42.46,42.46,0,0,0-15.19-4.7,26.76,26.76,0,0,0-3-.2H275A42.24,42.24,0,0,0,250.84,335a44,44,0,0,0-15.76,18.84,46,46,0,0,0-2.73,8.29,40.3,40.3,0,0,0-1,9.13,41.82,41.82,0,0,0,.36,5.39,16,16,0,0,0-12.87,4.08,9.2,9.2,0,0,0-.68.72,11.3,11.3,0,0,1-2.78,1.59,14.65,14.65,0,0,1-5.39.8,11.75,11.75,0,0,1-4.95-1,13.83,13.83,0,0,1-4.29-3,13.5,13.5,0,0,1-2.79-4.27,12.82,12.82,0,0,1-1-5V357.21h25.76a14.64,14.64,0,0,0,10.86-4.9,15.56,15.56,0,0,0,.25-21.4A14.59,14.59,0,0,0,222.71,326H197v-5.11c0-.24,0-.47,0-.71a17.35,17.35,0,0,0-4.57-10.45,15,15,0,0,0-11.23-4.82,14.85,14.85,0,0,0-11.64,5.33,16.28,16.28,0,0,0-4,10.65v8.24a14.29,14.29,0,0,0-6.72-1.66H130.17a28.49,28.49,0,0,0-11.29,2.67,29.53,29.53,0,0,0-8.93,6.43,30.37,30.37,0,0,0-5.17,7.45,42.14,42.14,0,0,0-4.4-4.85,43.73,43.73,0,0,0-13.82-8.72,44.33,44.33,0,0,0-16.45-3.13,43.35,43.35,0,0,0-17.26,3.44,42.4,42.4,0,0,0-13.73,9.41c-.52.53-1,1.09-1.51,1.65V320.58a15.23,15.23,0,0,0-4.39-10.74,14.85,14.85,0,0,0-10.86-4.66,15.46,15.46,0,0,0-15.54,15.4v78.79a15.33,15.33,0,0,0,15.54,15.39,14.8,14.8,0,0,0,9.87-3.68,15.63,15.63,0,0,0,9.61,3.24,15.17,15.17,0,0,0,10.73-4.39,14.79,14.79,0,0,0,4.66-10.85V369.93a10.61,10.61,0,0,1,1-4.54,13.32,13.32,0,0,1,2.84-4,12.41,12.41,0,0,1,4-2.64,13.62,13.62,0,0,1,10.12.09,13.43,13.43,0,0,1,4.24,2.84,12.76,12.76,0,0,1,3.72,9.16v28.7a14.18,14.18,0,0,0,4.81,10.85,15.37,15.37,0,0,0,10.43,4h.4A15.65,15.65,0,0,0,109,409.86l.06-.06.17.21a14,14,0,0,0,10.79,4.75h27.09A31.83,31.83,0,0,0,159,412.57a30,30,0,0,0,9.59-6.11,27.39,27.39,0,0,0,6.16-8.83,44.7,44.7,0,0,0,4.57,5.05,43.39,43.39,0,0,0,14.55,9,48.92,48.92,0,0,0,17.27,3.08,41.2,41.2,0,0,0,16.47-3.3,45.69,45.69,0,0,0,13.61-9.23,8.32,8.32,0,0,0,1.11-1.34c.14-.17.26-.36.39-.54a46.1,46.1,0,0,0,8.08,7.06A41.89,41.89,0,0,0,275,414.76a48.58,48.58,0,0,0,9.5-.89,7.44,7.44,0,0,0,.78-.2c1.33-.41,2.61-.82,3.83-1.23s2.21-.78,3.26-1.22a14.76,14.76,0,0,0,2.25,1.55,14.44,14.44,0,0,0,5.42,1.79,28.67,28.67,0,0,0,3.23.2,15,15,0,0,0,10.58-4.39,14.79,14.79,0,0,0,4.66-10.86V371.25a43.37,43.37,0,0,0-.67-7.59l.94,1.4v28.73a54.56,54.56,0,0,0,.32,6.9,21.45,21.45,0,0,0,2.39,7.11,15.18,15.18,0,0,0,9.2,7.55,43.92,43.92,0,0,0,21.69,0,15.31,15.31,0,0,0,9.15-7.37,20.87,20.87,0,0,0,2.44-7.12,54.94,54.94,0,0,0,.32-6.74V365.06l34.25-51.22C402.06,308.62,403.71,304.4,403.71,300.57ZM270.47,383.3a16.15,16.15,0,0,1-4.49-3,13.36,13.36,0,0,1-3-4.2,11.17,11.17,0,0,1-1-4.82,11.67,11.67,0,0,1,1-4.8,14,14,0,0,1,2.93-4.29,14.46,14.46,0,0,1,4.28-3,11.19,11.19,0,0,1,4.67-1,11,11,0,0,1,4.67,1,16,16,0,0,1,4.48,3.07,12.65,12.65,0,0,1,2.84,4.16,11.78,11.78,0,0,1,1,4.78,12.32,12.32,0,0,1-1,5.08,13.57,13.57,0,0,1-2.86,4.22,12.82,12.82,0,0,1-4.13,2.73,13,13,0,0,1-5,1A10.51,10.51,0,0,1,270.47,383.3ZM160.74,358.41c-.47-.23-1-.44-1.43-.63a14.1,14.1,0,0,0,6.12-1.69v5.15A28.37,28.37,0,0,0,160.74,358.41ZM113.62,381a27.6,27.6,0,0,0,4.82,2.89l.66.3a14.7,14.7,0,0,0-5.48,1.67ZM22.36,406.69Z"/><path class="cls-1" d="M501.57,384.5,457,292.34c-4.21-8.4-11.46-13-20.41-13a23.21,23.21,0,0,0-20.64,13l-44.49,92.12c-2.5,5-3.66,8.81-3.66,12,0,7.31,4.76,13.31,14,17.78,5,2.49,8.94,3.66,12.44,3.66a16.35,16.35,0,0,0,10.16-3.22,19.42,19.42,0,0,0,5-5.27c.74-1.22,1.68-3,2.93-5.49l6.38-13.25h35.56L460.68,404c1.13,2.26,2,4,2.7,5.23a17.89,17.89,0,0,0,5.34,5.81,16.74,16.74,0,0,0,10,3c3.49,0,7.44-1.16,12.44-3.66,9.31-4.65,14-10.69,14-17.94C505.18,393.18,504.05,389.47,501.57,384.5Z"/><path class="cls-1" d="M97.9,184.86l0,.11c1.94,8.78,10.91,38.16,45.1,47.63,9.42,2.84,15.77,2.91,19.79,2.46,16,21.87,43,18.09,51.32,16.29a4.32,4.32,0,0,1,1.87.24c13.59,9.48,28.55,12.2,44.43,8.08a4.85,4.85,0,0,1,2.43.47C272.6,266.08,282.2,269,292,269a50.87,50.87,0,0,0,10.41-1.09c6.27-1.31,12.71-2.54,18.94-3.74,12.45-2.39,25.33-4.86,37.92-8.07a53,53,0,0,0,24.07-13.55c12.34-12.71,24.75-26.83,40.26-45.78,14.15-17.3,16-37.73,5.11-57.55-9.95-18.16-20.26-35.91-32.68-57-8.8-14.92-22.51-23.45-40.74-25.36A4.83,4.83,0,0,1,353,55.8c-6-6.69-15.55-16-28.71-19.16a311.6,311.6,0,0,0-40.7-7c-7.93-.84-15.9-1.1-23.61-1.35-6.22-.2-12.65-.41-18.84-.93-12.64-1.05-25.51-2.42-38-3.74-7.59-.8-15.43-1.64-23.17-2.39-19.14-1.87-30.59,7.12-33.1,26-1.83,13.71,2.13,27.2,11.47,39,10.64,13.46,24.74,21,41.89,22.46.56,0,1.14.08,1.74.12s1.86.11,2.57.22c5.35,5.2,10.51,10.78,15.5,16.18l1.4,1.51-.14.2a117,117,0,0,0-9.52,16.35,12.06,12.06,0,0,1-1,2,6.88,6.88,0,0,1-1.15.06c-18.79-.17-37.88-.17-56.34-.18q-14.55,0-29.09,0h-.1c-11.59,0-20.17,5.49-24.17,15.46l-.06.13c-1.75,3.72-3.57,9.69-2.19,23A8.34,8.34,0,0,0,97.9,184.86Zm.3.92a5.92,5.92,0,0,1-.28-.84A7.52,7.52,0,0,0,98.2,185.78Z"/><path class="cls-2" d="M22.36,313.25a6.82,6.82,0,0,1,5.06,2.2,7.17,7.17,0,0,1,2.12,5.13v78.79a7.1,7.1,0,0,1-2.12,5.2,6.93,6.93,0,0,1-5.06,2.12A7.24,7.24,0,0,1,17,404.57a7.07,7.07,0,0,1-2.13-5.2V320.58a7.39,7.39,0,0,1,7.47-7.33Z"/><path class="cls-2" d="M70.11,335.37a36.12,36.12,0,0,1,13.47,2.56A35.48,35.48,0,0,1,94.86,345a35,35,0,0,1,7.76,10.84,32,32,0,0,1,2.93,13.62v29.59a6.63,6.63,0,0,1-2.13,5,7.59,7.59,0,0,1-5,2.2,7.3,7.3,0,0,1-5.05-1.9,6.19,6.19,0,0,1-2.12-4.84v-28.7A20.75,20.75,0,0,0,85.12,356a21.46,21.46,0,0,0-6.74-4.54,21.64,21.64,0,0,0-16.4-.15,20.53,20.53,0,0,0-6.59,4.32A21.3,21.3,0,0,0,50.85,362a18.6,18.6,0,0,0-1.69,7.91v29.15A6.8,6.8,0,0,1,47,404.13a7.19,7.19,0,0,1-5.13,2.12,7.6,7.6,0,0,1-5.13-1.9,6.13,6.13,0,0,1-2.19-4.84v-28.7A36,36,0,0,1,37.45,357a37.06,37.06,0,0,1,7.47-11.27,34.23,34.23,0,0,1,11.13-7.62A35.14,35.14,0,0,1,70.11,335.37Z"/><path class="cls-2" d="M109.79,356.75a20,20,0,0,1,1.62-7.91,22.06,22.06,0,0,1,4.39-6.73,21.37,21.37,0,0,1,6.52-4.69,20.55,20.55,0,0,1,8.12-1.91h28.27a6.25,6.25,0,0,1,4.91,2.28,7.2,7.2,0,0,1,2,4.76,6.92,6.92,0,0,1-2.12,5.05,6.6,6.6,0,0,1-4.76,2.12H131.32a6.77,6.77,0,0,0-5.34,2,7.23,7.23,0,0,0-1.83,5,7.55,7.55,0,0,0,1.83,5,6.57,6.57,0,0,0,5.34,2.2h18a18.09,18.09,0,0,1,7.91,1.75,20.12,20.12,0,0,1,6.29,4.69,22.54,22.54,0,0,1,4.18,6.81,21.61,21.61,0,0,1,1.54,8,22.53,22.53,0,0,1-1.62,8.64,19.24,19.24,0,0,1-4.61,6.81,21.64,21.64,0,0,1-7,4.47,23.72,23.72,0,0,1-8.86,1.61H120.05a6.06,6.06,0,0,1-4.76-2.05,7.16,7.16,0,0,1-1.83-5,7.54,7.54,0,0,1,2-5.05,6.76,6.76,0,0,1,4.91-2.42h26.8a7.78,7.78,0,0,0,5.49-1.83,6.72,6.72,0,0,0,2-5.2c0-2.44-.66-4.19-2-5.27a8.49,8.49,0,0,0-5.49-1.61H129.57a17.89,17.89,0,0,1-7.69-1.68,20.17,20.17,0,0,1-6.3-4.62,21.54,21.54,0,0,1-4.25-6.88A23,23,0,0,1,109.79,356.75Z"/><path class="cls-2" d="M181.12,313a7,7,0,0,1,5.34,2.27,9.17,9.17,0,0,1,2.42,5.64v13.18h33.83a6.64,6.64,0,0,1,5.13,2.27,7.51,7.51,0,0,1-.15,10.47,6.69,6.69,0,0,1-5,2.35H188.88v21.38a20.91,20.91,0,0,0,1.61,8.13,21.26,21.26,0,0,0,4.47,6.8,21.82,21.82,0,0,0,6.73,4.69A19.88,19.88,0,0,0,210,391.9a22.48,22.48,0,0,0,8.42-1.39,19.42,19.42,0,0,0,6.08-3.88h-.15a8,8,0,0,1,10.84.14,6.69,6.69,0,0,1,2.05,5.13,8.38,8.38,0,0,1-.37,2.42,4.38,4.38,0,0,1-1.39,2.12h.15a37.32,37.32,0,0,1-11.21,7.61,32.9,32.9,0,0,1-13.25,2.64,40.59,40.59,0,0,1-14.43-2.56,35.08,35.08,0,0,1-11.86-7.33,36.3,36.3,0,0,1-11.35-26.28V320.87a8.18,8.18,0,0,1,2.13-5.42A6.86,6.86,0,0,1,181.12,313Z"/><path class="cls-2" d="M279.09,336a34.21,34.21,0,0,1,12.38,3.81,35.16,35.16,0,0,1,10,7.84A37,37,0,0,1,308,358.43a34.44,34.44,0,0,1,2.41,12.82v28.26a6.81,6.81,0,0,1-2.19,5.06,7,7,0,0,1-5,2.12,19,19,0,0,1-2.27-.15,6.29,6.29,0,0,1-2.42-.8,7.42,7.42,0,0,1-2.12-1.83,5.62,5.62,0,0,1-1.1-3.22c-.49.19-1.37.63-2.64,1.31s-2.19,1.18-2.78,1.47a34.69,34.69,0,0,1-3.37,1.32q-1.76.58-3.66,1.17a40.21,40.21,0,0,1-7.91.73,33.88,33.88,0,0,1-19.62-5.93,36.55,36.55,0,0,1-12.89-15.31,34,34,0,0,1-2.27-6.8,33.56,33.56,0,0,1-.81-7.4,32.46,32.46,0,0,1,.81-7.32,38.33,38.33,0,0,1,2.27-6.89,35.82,35.82,0,0,1,12.89-15.37A34.11,34.11,0,0,1,275,335.81H277A18.24,18.24,0,0,1,279.09,336Zm-4.24,56.39a21,21,0,0,0,8.12-1.61,20.67,20.67,0,0,0,6.74-4.47,21.56,21.56,0,0,0,4.54-6.66,20.46,20.46,0,0,0,1.68-8.35,19.92,19.92,0,0,0-1.68-8,20.88,20.88,0,0,0-4.61-6.74,24.07,24.07,0,0,0-6.74-4.61,19,19,0,0,0-8-1.76,19.24,19.24,0,0,0-8,1.68,22.5,22.5,0,0,0-6.66,4.62,22.1,22.1,0,0,0-4.61,6.73,19.62,19.62,0,0,0-1.69,8.06,19.35,19.35,0,0,0,1.76,8.2,21.52,21.52,0,0,0,4.76,6.66,23.87,23.87,0,0,0,6.74,4.54A18.4,18.4,0,0,0,274.85,392.34Z"/><path class="cls-3" d="M387.56,289.69q8.07,5.61,8.08,10.88,0,3.15-3.79,8.75l-35.64,53.29v31.51a47,47,0,0,1-.25,5.7,13.15,13.15,0,0,1-1.57,4.37,7.22,7.22,0,0,1-4.45,3.46,36.26,36.26,0,0,1-16.83,0,7.12,7.12,0,0,1-4.45-3.55,13.57,13.57,0,0,1-1.57-4.45,48.65,48.65,0,0,1-.25-5.86V362.61L291.2,309.32q-3.79-5.61-3.79-8.75c0-3.51,2.42-6.9,7.26-10.14s8.3-4.87,10.39-4.87a8.26,8.26,0,0,1,4.95,1.32q2.81,1.81,5.94,6.76l25.57,40.92,25.58-40.92q3.13-5,5.44-6.51a9.29,9.29,0,0,1,5.36-1.57Q381,285.56,387.56,289.69Z"/><path class="cls-3" d="M449.76,296,494.3,388q2.81,5.61,2.81,8.41,0,5.94-9.57,10.73-5.61,2.8-8.83,2.8a8.84,8.84,0,0,1-5.28-1.48,9.76,9.76,0,0,1-3-3.14c-.6-1.1-1.46-2.75-2.56-4.95l-8.57-17.82H413.62L405,400.39q-1.65,3.3-2.55,4.79a12,12,0,0,1-3,3.05,8.54,8.54,0,0,1-5.28,1.57q-3.23,0-8.83-2.81-9.57-4.62-9.57-10.56c0-1.87.93-4.67,2.81-8.41l44.54-92.23a14.37,14.37,0,0,1,5.53-6.1,14.62,14.62,0,0,1,7.84-2.31Q445.47,287.38,449.76,296Zm-13.37,39.59L425.5,358.16h21.95Z"/><path class="cls-2" d="M421.6,143.11c-10.47-19.13-21.48-38-32.55-56.76-7.72-13.08-19.54-19.85-34.63-21.43A12.6,12.6,0,0,1,347,61.2c-6.88-7.65-14.7-14.31-24.62-16.72a300.19,300.19,0,0,0-39.64-6.83c-14-1.49-28.22-1.09-42.28-2.26-20.44-1.71-40.82-4.15-61.24-6.15-14.65-1.44-22.38,4.49-24.32,19-1.64,12.31,2.27,23.39,9.8,32.92a49.85,49.85,0,0,0,36.24,19.43c2.92.24,6.72.14,8.51,1.87,7.84,7.55,15.09,15.71,22.22,23.3-3.85,6.23-9,13.1-12.49,20.75-2.19,4.88-4.27,6.85-9.62,6.8-28.46-.26-56.92-.13-85.38-.21-7.86,0-13.89,3.16-16.8,10.48-.53,1.33-3.14,5-1.67,19.18.28.7,5.3,32.61,39.57,42,16.37,5,20.84.34,21.61,1.68,12.89,22.59,38.39,18.5,45.55,16.94a11.58,11.58,0,0,1,8.19,1.51c11.64,8.12,24,10.46,37.82,6.88a12.41,12.41,0,0,1,8.62,1.4c10.49,6.39,21.42,9.32,33.67,6.77,18.84-3.92,37.89-7,56.52-11.73a44.77,44.77,0,0,0,20.27-11.35c14-14.4,27.08-29.72,39.8-45.27C429.53,176.75,430.85,160,421.6,143.11Zm-76.73-63.8a40.84,40.84,0,0,1,4.42-.24c-15.23,17.35-29.15,33.88-44,49.55-3.18,3.36-9.55,4.11-14.63,5.19-16.51,3.51-33.11,6.62-49.68,9.84a38.64,38.64,0,0,1-5.07,0c3.66-4.56,6.23-8,9.08-11.25,8.79-9.92,18.29-19.29,26.36-29.76,7.08-9.19,16.46-12.3,27-14.28C313.87,85.46,329.36,82.33,344.87,79.31Zm-121.1,22.16c14.69-6.71,28.83-13.14,42.94-19.64,4.14-1.9,7.1-5,4.33-9.55-2.58-4.24-6.53-2.83-10.11-.67-13.28,8-27.16,14.37-42.6,17.11-21.65,3.84-40.68-4.53-48.84-22a33.64,33.64,0,0,1-2.77-8.49c-2.37-13.55,1.14-18,14.71-16.92C206.15,43.26,230.8,46,255.51,48c15.34,1.23,30.8,1.1,46.09,2.69A56.76,56.76,0,0,1,336.44,66.9c-9.45,1.94-17.66,3.65-25.87,5.3-7.12,1.43-14.27,2.71-21.38,4.22a46.67,46.67,0,0,0-27,16c-5.33,6.41-10.89,12.65-16.67,18.65-1.29,1.35-4.24,2.42-5.87,1.89C232.83,110.79,227.13,106.82,223.77,101.47Zm39.65,136.18c-10.79,5-21.63,6.53-32.32-.09,11-9.27,21.67-18.07,32.09-27.14,3.5-3,9.36-6.52,4.33-11.89s-8.45.35-12.17,3.37c-10.11,8.2-19.77,17.18-30.75,24-13.12,8.13-27.42,9.41-41.08,0-2.23-1.53-4.12-3.56-6.94-6,2.68-1.13,4.6-1.77,6.36-2.71,12.22-6.53,24.47-13,36.57-19.78,3.54-2,6.48-5.16,3.35-9.42-3-4.11-6.68-2.38-10.11,0-13.59,9.41-27.59,17.91-44.11,21.4-19.88,4.18-37.13-1.76-46.79-17.11a41.7,41.7,0,0,1-5.34-13.59c-2-9.58,2-14.11,11.78-14.13,29.08-.05,58.17,0,87.26,0,14.5,0,29.09-1.07,43.49.14,22.4,1.88,37.76,16.16,42.84,38,.48,2.07-.05,5.31-1.43,6.71C289.47,220.54,277.84,231,263.42,237.65Zm69.13,2.4c-10.69,2.09-21.36,4.46-32.15,5.87-6.27.82-12.76,0-19.15-.09l-.27-2.22a30.88,30.88,0,0,1,2.83-3.1c9.23-7.93,18.39-15.94,27.8-23.66,4.61-3.79,5.43-8.06,4.05-13.65-6-24.37-19.1-42.29-44.07-50.49C279.75,151.17,288,150,296,148c5.54-1.38,8.74.17,11.45,5,8.72,15.7,17.71,31.24,26.66,46.81,4.89,8.53,10,17,14.85,25.48,1.69,2.94,3.1,6,5.18,10.13C346.49,237.08,339.54,238.68,332.55,240.05Zm73.56-54.49q-16,18.41-32,36.75c-1.79,2-3.72,4-6,6.45-1.58-2.5-2.87-4.4-4-6.37-14.88-25.71-29.6-51.51-44.73-77.08-3-5.11-2.63-8.29,1.35-12.66,15.09-16.58,29.74-33.56,45.91-51.94,4.35,5.09,8.68,9,11.54,13.72,10.79,17.94,21.16,36.15,31.57,54.32C417,161.58,415.71,174.5,406.11,185.56Z"/><path class="cls-4" d="M139.19,251.9c.95,1,4,3.3,3.66,4.27-.87,2.33-3,5.21-5.23,5.82-13.75,3.82-27.66,7.06-41.5,10.55-8.89,2.24-17.78,4.49-26.62,6.93-3.57,1-6.66.79-7.75-3.12s1.68-5.53,5.21-6.42c22.51-5.72,45-11.55,67.5-17.32C135.49,252.35,136.56,252.29,139.19,251.9Z"/><path class="cls-5" d="M101.22,170.27c1,1,4,3.3,3.66,4.27-.87,2.32-3,5.2-5.23,5.82-13.75,3.82-27.66,7-41.5,10.54-8.89,2.25-17.78,4.5-26.62,6.93-3.57,1-6.67.8-7.75-3.11s1.68-5.53,5.21-6.43c22.51-5.71,45-11.54,67.5-17.31C97.51,170.72,98.59,170.66,101.22,170.27Z"/><path class="cls-6" d="M67.77,95.23c-1-1-3.85-3.11-3.52-4.06.8-2.33,2.73-5.37,4.84-6,13.11-3.81,26.4-7,39.64-10.46,7.43-1.92,14.81-4.14,22.34-5.53,2-.37,4.47,1.84,6.73,2.86-1.4,2.22-2.4,5.91-4.27,6.42-21,5.71-42.14,10.93-63.25,16.28C69.87,94.87,69.45,94.92,67.77,95.23Z"/><path class="cls-7" d="M137.28,138.19c-.84-.82-4.06-3.2-3.76-3.78,1.25-2.45,3.2-5.63,5.53-6.28,15.82-4.42,31.81-8.28,47.75-12.31,5-1.25,9.88-2.85,14.92-3.49,1.87-.24,5.09,1.35,5.83,3,1.45,3.19-.44,5.68-4,6.57l-62.7,15.88C140.25,137.89,139.6,137.9,137.28,138.19Z"/><path class="cls-8" d="M105.44,116.18c-.89-.9-3.69-2.46-3.76-4.13-.08-1.86,2-5.08,3.7-5.56,17.47-4.82,35-9.36,52.66-13.5,2-.47,4.74,2,7.13,3.06-1.4,2-2.44,5.35-4.26,5.86-17.45,4.91-35,9.34-52.57,13.9C107.93,115.92,107.5,115.92,105.44,116.18Z"/><path class="cls-9" d="M57.57,218.18c-.76-.76-3.16-2.09-3.22-3.52-.07-1.59,1.69-4.34,3.16-4.75,14.92-4.11,29.91-8,45-11.53,1.73-.4,4.05,1.68,6.09,2.61-1.19,1.73-2.08,4.57-3.64,5C90,210.19,75,214,60,217.87,59.69,218,59.32,218,57.57,218.18Z"/><path class="cls-10" d="M58,158.63c-1-1.08-3.73-2.63-3.69-4.12,0-2,1.79-5.11,3.5-5.7,6.24-2.15,12.77-3.43,19.18-5.07,9.52-2.43,19-4.84,28.53-7.35,3.39-.9,6.68-1.23,7.82,2.9s-1.6,5.7-5.12,6.6c-15.51,4-31,8-46.51,12C60.92,158.09,60.08,158.22,58,158.63Z"/><path class="cls-11" d="M77.1,247.37c-1.21-1.15-4-2.61-4.12-4.22-.09-1.86,1.85-5,3.56-5.56A190,190,0,0,1,100,231.8c1.82-.32,4.15,2.2,6.24,3.41-1.44,2-2.51,5.14-4.39,5.74C94.15,243.4,86.25,245.07,77.1,247.37Z"/><path class="cls-12" d="M163.57,252.67c-.82-.78-2.74-1.78-2.8-2.87-.06-1.26,1.26-3.41,2.42-3.77a127.59,127.59,0,0,1,15.89-3.94c1.24-.22,2.82,1.5,4.24,2.32-1,1.34-1.7,3.49-3,3.9C175.15,250,169.78,251.11,163.57,252.67Z"/><path class="cls-13" d="M119.74,236.56c-.86-.81-2.86-1.85-2.92-3-.07-1.32,1.31-3.56,2.52-3.94a133.52,133.52,0,0,1,16.59-4.11c1.3-.23,2.95,1.56,4.43,2.42-1,1.4-1.78,3.64-3.11,4.07C131.83,233.75,126.23,234.93,119.74,236.56Z"/><path class="cls-14" d="M231.1,237.56c11-9.27,21.67-18.07,32.09-27.14,3.5-3,9.36-6.52,4.33-11.89s-8.45.35-12.17,3.37c-10.11,8.2-19.77,17.18-30.75,24-13.12,8.13-27.42,9.41-41.08,0-2.23-1.53-4.12-3.56-6.94-6,2.68-1.13,4.6-1.77,6.36-2.71,12.22-6.53,24.47-13,36.57-19.78,3.54-2,6.48-5.16,3.35-9.42-3-4.11-6.68-2.38-10.11,0-13.59,9.41-27.59,17.91-44.11,21.4-19.88,4.18-37.13-1.76-46.79-17.11a41.7,41.7,0,0,1-5.34-13.59c-2-9.58,2-14.11,11.78-14.13,29.08-.05,58.17,0,87.26,0,14.5,0,29.09-1.07,43.49.14,22.4,1.88,37.76,16.16,42.84,38,.48,2.07-.05,5.31-1.43,6.71-11,11.15-22.61,21.6-37,28.26C252.63,242.63,241.79,244.18,231.1,237.56Z"/><path class="cls-3" d="M366.56,80.71c4.35,5.09,8.68,9,11.54,13.72,10.79,17.94,21.16,36.15,31.57,54.32,7.35,12.83,6,25.75-3.56,36.81q-16,18.41-32,36.75c-1.79,2-3.72,4-6,6.45-1.58-2.5-2.87-4.4-4-6.37-14.88-25.71-29.6-51.51-44.73-77.08-3-5.11-2.63-8.29,1.35-12.66C335.74,116.07,350.39,99.09,366.56,80.71Z"/><path class="cls-15" d="M223.77,101.47c14.69-6.71,28.83-13.14,42.94-19.64,4.14-1.9,7.1-5,4.33-9.55-2.58-4.24-6.53-2.83-10.11-.67-13.28,8-27.16,14.37-42.6,17.11-21.65,3.84-40.68-4.53-48.84-22a33.64,33.64,0,0,1-2.77-8.49c-2.37-13.55,1.14-18,14.71-16.92C206.15,43.26,230.8,46,255.51,48c15.34,1.23,30.8,1.1,46.09,2.69A56.76,56.76,0,0,1,336.44,66.9c-9.45,1.94-17.66,3.65-25.87,5.3-7.12,1.43-14.27,2.71-21.38,4.22a46.67,46.67,0,0,0-27,16c-5.33,6.41-10.89,12.65-16.67,18.65-1.29,1.35-4.24,2.42-5.87,1.89C232.83,110.79,227.13,106.82,223.77,101.47Z"/><path class="cls-16" d="M349.29,79.07c-15.23,17.35-29.15,33.88-44,49.55-3.18,3.36-9.55,4.11-14.63,5.19-16.51,3.51-33.11,6.62-49.68,9.84a38.64,38.64,0,0,1-5.07,0c3.66-4.56,6.23-8,9.08-11.25,8.79-9.92,18.29-19.29,26.36-29.76,7.08-9.19,16.46-12.3,27-14.28,15.53-2.93,31-6.06,46.53-9.08A40.84,40.84,0,0,1,349.29,79.07Z"/><path class="cls-17" d="M271.59,152.71C279.75,151.17,288,150,296,148c5.54-1.37,8.74.17,11.45,5,8.72,15.7,17.71,31.24,26.66,46.81,4.89,8.53,10,17,14.85,25.48,1.69,2.94,3.1,6,5.18,10.13-7.69,1.65-14.64,3.25-21.63,4.62-10.69,2.09-21.36,4.46-32.15,5.87-6.27.82-12.76,0-19.15-.09l-.27-2.22a30.88,30.88,0,0,1,2.83-3.1c9.23-7.93,18.39-15.94,27.8-23.66,4.61-3.79,5.43-8.06,4.05-13.65C309.64,178.83,296.56,160.91,271.59,152.71Z"/><path class="cls-1" d="M364.84,158.11a6.3,6.3,0,0,1,2.53-1.54,2.29,2.29,0,0,1,1.82.37,8.84,8.84,0,0,1,1.87,1.81,8.56,8.56,0,0,1,1.38,2.19,2.21,2.21,0,0,1,0,1.73,6.73,6.73,0,0,1-2,2.5c-6,5.11-8.94,7.29-14.89,12.87a3.74,3.74,0,0,1-3.43.94,5.83,5.83,0,0,1-3.38-2,7.13,7.13,0,0,1-1.82-5.17,18.22,18.22,0,0,1,1.4-5.78c.78-1.93,1.49-3.9,2.16-5.88a21.14,21.14,0,0,0,1.14-5.77,6.44,6.44,0,0,0-1.31-4.57,3.66,3.66,0,0,0-1.08-.77,5.55,5.55,0,0,0-1.46-.55,3.76,3.76,0,0,0-1.63.1,5.44,5.44,0,0,0-2.19,1.28,3.83,3.83,0,0,0-1.36,2.74,4.35,4.35,0,0,0,.49,2.69l.58,1,.19.24a13.6,13.6,0,0,1,1,1.34,3.54,3.54,0,0,1,.44,1.3c.14.93-.63,2.1-2.36,3.4-1.91,1.45-3.48,1.8-4.54,1.13a8,8,0,0,1-1.63-1.73,15,15,0,0,1-3-9.69,12.77,12.77,0,0,1,4.77-9.62,12.14,12.14,0,0,1,10.12-3.11,13.81,13.81,0,0,1,9,5,12.69,12.69,0,0,1,2.52,5.06,14,14,0,0,1,.35,5.19,24.78,24.78,0,0,1-2.16,7.81l-.63,1.21.16.2Z"/><path class="cls-1" d="M366.28,121.2a2.39,2.39,0,0,1,.39-1.65,12.16,12.16,0,0,1,1.42-1.79,5.25,5.25,0,0,1,1.37-1.19.73.73,0,0,1,.92.16,4.27,4.27,0,0,1,.67.88c.18.32.42.8.79,1.44,5.93,7.87,15.09,12.06,20.19,20.59a5.94,5.94,0,0,1,1.26,2.33,3.26,3.26,0,0,1-.2,2,9.29,9.29,0,0,1-1.33,2.14,6.7,6.7,0,0,1-1.67,1.55,3.14,3.14,0,0,1-1.31.45,2,2,0,0,1-1.14-.36,9,9,0,0,1-1.89-1.85l-3.92-4.79L371.52,150q-2.67,2.28-4.38,1.22a7.57,7.57,0,0,1-1.57-1.53A9.7,9.7,0,0,1,364.4,148l-7.6-15.88c-.34-.73-.59-1.31-.73-1.72a2.93,2.93,0,0,1-.05-1.49,2.63,2.63,0,0,1,1-1.56,8.3,8.3,0,0,1,2-1.23c2.18-1,3.76-.95,4.72.23a8.85,8.85,0,0,1,1.08,1.88.57.57,0,0,0,.06.15l5.52,11.58,6.2-5.33c-3.5-4.29-5.53-6.36-8.83-10.71-.46-.61-.79-1.08-1-1.4A3.94,3.94,0,0,1,366.28,121.2Z"/><path class="cls-1" d="M363.67,175a1.35,1.35,0,0,1,1-.32,1.22,1.22,0,0,1,.92.46c3.67,4.5,6.23,8.24,10.78,14.18a2.13,2.13,0,0,1,.43,1.29,1.55,1.55,0,0,1-.35,1.17,1.11,1.11,0,0,1-1,.36,1.54,1.54,0,0,1-1.05-.62c-1.87-2.32-2.86-3.59-4.7-6.06-1.85,2-2.86,3.09-5,5.13a57.27,57.27,0,0,0,4.51,5.65,1.38,1.38,0,0,1,.38,1.08,1.33,1.33,0,0,1-.61,1,1.8,1.8,0,0,1-1.16.33,1.62,1.62,0,0,1-1.12-.46c-4.37-4.57-6.48-8.39-9.93-14.43a2,2,0,0,1-.25-1.37,2,2,0,0,1,.47-1.07,1,1,0,0,1,1-.36,1.26,1.26,0,0,1,.88.62c1.45,2.35,2.21,3.64,3.86,6.14,2-2.07,3-3.11,4.85-5.1-1.75-2.42-2.55-3.6-4.06-5.62a1.54,1.54,0,0,1-.3-1.06A1.28,1.28,0,0,1,363.67,175Z"/><path class="cls-1" d="M372.93,172.84a5.08,5.08,0,0,1,2.17-1.15,5.8,5.8,0,0,1,2.38-.1,6.58,6.58,0,0,1,2.31.87,6.84,6.84,0,0,1,1.94,1.79A8.18,8.18,0,0,1,383,176.7a9.31,9.31,0,0,1,.12,5.4,8.1,8.1,0,0,1-1.17,2.53,5.49,5.49,0,0,1-1.82,1.75,3.72,3.72,0,0,1-2.24.48,5.68,5.68,0,0,1-2.49-1,9.62,9.62,0,0,1-2.39-2.28,10.75,10.75,0,0,1-1.59-3,9.23,9.23,0,0,1-.54-3,6.83,6.83,0,0,1,.52-2.67A5.94,5.94,0,0,1,372.93,172.84Zm1.68,2.12a3.25,3.25,0,0,0-.86,1.27,4.09,4.09,0,0,0-.27,1.65,6,6,0,0,0,.33,1.81,6.63,6.63,0,0,0,1,1.79,5.3,5.3,0,0,0,1.35,1.29,3.67,3.67,0,0,0,1.48.6,2.47,2.47,0,0,0,1.4-.18,2.83,2.83,0,0,0,1.13-.92,4.39,4.39,0,0,0,.7-1.46,5.69,5.69,0,0,0,.18-1.7,6.42,6.42,0,0,0-.31-1.71,5.37,5.37,0,0,0-.8-1.54,4.36,4.36,0,0,0-2.54-1.63,3.23,3.23,0,0,0-2.73.71Z"/><path class="cls-1" d="M387.11,178.14a1,1,0,0,1-.84.27,1.53,1.53,0,0,1-.88-.45c-1.41-1.74-2.13-2.69-3.46-4.47a6.93,6.93,0,0,1-1.11-2.33,7.31,7.31,0,0,1-.18-2.46,7,7,0,0,1,.69-2.35,6.78,6.78,0,0,1,1.5-2,1.13,1.13,0,0,1,.92-.19,1.43,1.43,0,0,1,.87.47,1.6,1.6,0,0,1,.23,1,1.35,1.35,0,0,1-.42.92,3.43,3.43,0,0,0-.91,1.16,3.73,3.73,0,0,0-.4,1.42,4.39,4.39,0,0,0,.14,1.52,4.16,4.16,0,0,0,.71,1.45c1.31,1.78,2,2.63,3.33,4.29a1.58,1.58,0,0,1,.2.89A1.18,1.18,0,0,1,387.11,178.14Z"/><path class="cls-1" d="M388.58,159.32a6.88,6.88,0,0,1,2.11-1,6.23,6.23,0,0,1,2.11-.24,5,5,0,0,1,2,.54,5.41,5.41,0,0,1,1.77,1.42c1.35,1.59,2.1,2.41,3.63,4a1.5,1.5,0,0,1,.4,1.06,1.57,1.57,0,0,1-.38,1.06,3.4,3.4,0,0,1-.33.32,1.18,1.18,0,0,1-.43.26,1.39,1.39,0,0,1-.54.07.9.9,0,0,1-.56-.28,5.72,5.72,0,0,0-.2.58l-.2.61a6,6,0,0,1-.32.68c-.12.22-.24.45-.38.69a8.5,8.5,0,0,1-1.07,1.22,6.48,6.48,0,0,1-3.56,1.79,5.53,5.53,0,0,1-3.53-.69,6,6,0,0,1-1.07-.78,5.85,5.85,0,0,1-.94-1,6.33,6.33,0,0,1-.71-1.23,8.71,8.71,0,0,1-.46-1.33,7.81,7.81,0,0,1,.05-3.93,6.81,6.81,0,0,1,2.05-3.31l.29-.25A2.85,2.85,0,0,1,388.58,159.32Zm5.83,9.06a4.31,4.31,0,0,0,.95-1.38,4.68,4.68,0,0,0,.39-1.62,5,5,0,0,0-.21-1.63,4.22,4.22,0,0,0-.77-1.45,3.19,3.19,0,0,0-1.14-.9,3,3,0,0,0-1.35-.32,4.31,4.31,0,0,0-1.4.22,3.78,3.78,0,0,0-1.31.76,3.91,3.91,0,0,0-.91,1.26,4.74,4.74,0,0,0-.41,1.54,4.85,4.85,0,0,0,.12,1.61,4.11,4.11,0,0,0,.66,1.46,3.71,3.71,0,0,0,1.16,1,3.42,3.42,0,0,0,1.42.41,3.77,3.77,0,0,0,1.49-.21A3.36,3.36,0,0,0,394.41,168.38Z"/><path class="cls-1" d="M395.34,157.35a3.89,3.89,0,0,1-.68-1.33,5.63,5.63,0,0,1-.22-1.58,6.25,6.25,0,0,1,.22-1.61,5.78,5.78,0,0,1,.67-1.5c1.17-1.75,1.71-2.64,2.88-4.35a1,1,0,0,1,.73-.46.73.73,0,0,1,.67.27,1.29,1.29,0,0,1,.26.92,1.66,1.66,0,0,1-.3,1c-1.14,1.65-1.63,2.55-2.73,4.3a2,2,0,0,0-.32,1.13,1.66,1.66,0,0,0,.36,1,1,1,0,0,0,.76.37,1,1,0,0,0,.8-.57c.72-1.17,1.06-1.76,1.77-2.9a2.65,2.65,0,0,1,1-1,2.32,2.32,0,0,1,1.23-.28,3.11,3.11,0,0,1,1.34.4,4.68,4.68,0,0,1,1.28,1,6.75,6.75,0,0,1,1.12,1.61,5.79,5.79,0,0,1,.57,1.75,4.84,4.84,0,0,1-.05,1.7,3.72,3.72,0,0,1-.69,1.53c-1.16,1.58-1.74,2.43-3,4.11a1.05,1.05,0,0,1-.87.45,1.3,1.3,0,0,1-.92-.43,1.82,1.82,0,0,1-.47-1.05,1.67,1.67,0,0,1,.24-1.13c1.21-1.72,1.76-2.6,2.85-4.23a1.6,1.6,0,0,0,.29-1.12,1.9,1.9,0,0,0-.55-1.09c-.35-.38-.66-.54-.94-.5a1.17,1.17,0,0,0-.77.62c-.7,1.1-1,1.67-1.77,2.81a3,3,0,0,1-1,1,2.78,2.78,0,0,1-1.27.37,2.6,2.6,0,0,1-1.29-.28A3.34,3.34,0,0,1,395.34,157.35Z"/><path class="cls-2" d="M71.76,490.67l-.07-43.45L50.44,483.93H48.62L27.37,447.37v43.3H23.74V439.9h3.12l22.71,39.24,22.7-39.24h3l.07,50.77Z"/><path class="cls-2" d="M128.12,487.34v3.33h-35V439.9H127v3.33H96.79v20h27.05v3.27h-27v20.82Z"/><path class="cls-2" d="M183,439.9v50.77h-3.05l-34.6-44.1v44.1h-3.7V439.9h3.12L179.26,484V439.9Z"/><path class="cls-2" d="M203.38,489.11a20.26,20.26,0,0,1-7.87-5l1.66-2.75a19.69,19.69,0,0,0,7.22,4.6,25.78,25.78,0,0,0,9.54,1.78q7.26,0,10.95-2.76a8.54,8.54,0,0,0,3.7-7.18,7.5,7.5,0,0,0-2-5.44,13,13,0,0,0-4.86-3.12,66.88,66.88,0,0,0-7.83-2.24,76.89,76.89,0,0,1-9-2.69,14.3,14.3,0,0,1-5.73-4,10.78,10.78,0,0,1-2.36-7.29,12.47,12.47,0,0,1,2-6.79,13.33,13.33,0,0,1,6-4.89,24.42,24.42,0,0,1,10-1.82,28.38,28.38,0,0,1,8.27,1.24,24.29,24.29,0,0,1,7,3.33l-1.38,3a23.43,23.43,0,0,0-6.71-3.19,25.11,25.11,0,0,0-7.22-1.09q-7,0-10.66,2.83a8.86,8.86,0,0,0-3.63,7.32,7.51,7.51,0,0,0,2,5.44,12.89,12.89,0,0,0,4.86,3.12,72.54,72.54,0,0,0,7.91,2.32,74.16,74.16,0,0,1,8.92,2.69,14.72,14.72,0,0,1,5.69,4,10.33,10.33,0,0,1,2.36,7.15,12,12,0,0,1-2,6.74,13.62,13.62,0,0,1-6.13,4.86A25.27,25.27,0,0,1,214,491,29.58,29.58,0,0,1,203.38,489.11Z"/><path class="cls-2" d="M276.24,476.38H246.79l-6.46,14.29h-4L259.7,439.9h3.7l23.36,50.77h-4Zm-1.38-3.12L261.51,444l-13.27,29.3Z"/><path class="cls-2" d="M293.9,489.11a15.32,15.32,0,0,1-5.77-5.33l2.25-2.46a15,15,0,0,0,5,4.75,12.54,12.54,0,0,0,6.28,1.63q5.07,0,7.58-2.94c1.66-2,2.5-5,2.5-9v-32.5H293V439.9h22.42v35.83q0,7.62-3.48,11.46T301.63,491A16.13,16.13,0,0,1,293.9,489.11Z"/><path class="cls-2" d="M367.71,487.34v3.33h-35V439.9h33.95v3.33H336.37v20h27.06v3.27H336.37v20.82Z"/><path class="cls-2" d="M416.45,490.67l-12.12-17a37.16,37.16,0,0,1-4.93.36H384.9v16.61h-3.7V439.9h18.2q9.59,0,15,4.53T419.86,457A15.48,15.48,0,0,1,408,472.9l12.7,17.77ZM399.4,470.8q8.13,0,12.41-3.59c2.85-2.4,4.28-5.79,4.28-10.2s-1.43-7.79-4.28-10.19-7-3.59-12.41-3.59H384.9V470.8Z"/><path class="cls-2" d="M433.42,439.9h3.7v50.77h-3.7Z"/><path class="cls-2" d="M486.23,476.38H456.78l-6.46,14.29h-4l23.36-50.77h3.7l23.36,50.77h-4Zm-1.38-3.12L471.5,444l-13.27,29.3Z"/><rect class="cls-18" x="12.26" y="416.69" width="484.49" height="7.93"/></svg>